<svg xmlns="http://www.w3.org/2000/svg" width="94.987" height="81.8" viewBox="0 0 94.987 81.8">
  <g id="Group_307" data-name="Group 307" transform="translate(-7034.5 -2804)">
    <g id="Group_303" data-name="Group 303">
      <g id="Group_302" data-name="Group 302" transform="translate(7032 2795)">
        <path id="Path_15624" data-name="Path 15624" d="M34.8,24.8l-1.4-1.4a1.569,1.569,0,0,0-2.2,0l-7.9,7.9-3.6-3.6a1.569,1.569,0,0,0-2.2,0l-1.4,1.4a1.52,1.52,0,0,0-.1,2l6.2,7.7a1.457,1.457,0,0,0,2.3,0l10.4-12A1.422,1.422,0,0,0,34.8,24.8Z" fill="#e9204f"/>
        <path id="Path_15625" data-name="Path 15625" d="M68.5,34.3V30.6a.9.9,0,0,0-.9-.9H39.8a.9.9,0,0,0-.9.9v3.7a.9.9,0,0,0,.9.9H67.6A.9.9,0,0,0,68.5,34.3Z" fill="#e9204f"/>
        <path id="Path_15626" data-name="Path 15626" d="M34.8,43.6l-1.4-1.4a1.569,1.569,0,0,0-2.2,0l-7.9,7.9-3.6-3.6a1.569,1.569,0,0,0-2.2,0l-1.4,1.4a1.52,1.52,0,0,0-.1,2l6.2,7.7a1.457,1.457,0,0,0,2.3,0l10.4-12A1.424,1.424,0,0,0,34.8,43.6Z" fill="#e9204f"/>
        <path id="Path_15627" data-name="Path 15627" d="M39.8,48.5a.9.9,0,0,0-.9.9v3.8a.9.9,0,0,0,.9.9H63.3l3.5-5.6h-27Z" fill="#e9204f"/>
        <path id="Path_15628" data-name="Path 15628" d="M33.5,61.1a1.569,1.569,0,0,0-2.2,0L23.4,69l-3.6-3.7a1.569,1.569,0,0,0-2.2,0l-1.4,1.4a1.52,1.52,0,0,0-.1,2l6.2,7.7a1.522,1.522,0,0,0,2.3,0L35,64.4a1.547,1.547,0,0,0-.1-2.1Z" fill="#e9204f"/>
        <path id="Path_15629" data-name="Path 15629" d="M38.9,68.2V72a.9.9,0,0,0,.9.9H57.4l-.6-5.6h-17A.9.9,0,0,0,38.9,68.2Z" fill="#e9204f"/>
        <path id="Path_15630" data-name="Path 15630" d="M75.9,74.6v5.8a4.7,4.7,0,0,1-4.7,4.7H13a4.7,4.7,0,0,1-4.7-4.7V19.6A4.7,4.7,0,0,1,13,14.9H71.2a4.7,4.7,0,0,1,4.7,4.7V34l5.8-9.2V19.5A10.5,10.5,0,0,0,71.2,9H13A10.5,10.5,0,0,0,2.5,19.5V80.3A10.5,10.5,0,0,0,13,90.8H71.2A10.5,10.5,0,0,0,81.7,80.3v-15l-5.8,9.3C76,74.5,76,74.6,75.9,74.6Z" fill="#e9204f"/>
        <path id="Path_15631" data-name="Path 15631" d="M96.6,29.6,89.3,25a1.82,1.82,0,0,0-2.6.6L83.8,30l10.5,6.6,2.8-4.5A1.636,1.636,0,0,0,96.6,29.6Z" fill="#e9204f"/>
        <path id="Path_15632" data-name="Path 15632" d="M61.3,66.6l.7,7a1.91,1.91,0,0,0,2.5,1.6l6.6-2.4a1.891,1.891,0,0,0,1-.8l2-3.2L63.6,62.2l-2,3.2A1.383,1.383,0,0,0,61.3,66.6Z" fill="#e9204f"/>
        <path id="Path_15633" data-name="Path 15633" d="M66,58.4,76.5,65,92,40.5,81.4,33.9Z" fill="#e9204f"/>
      </g>
    </g>
  </g>
</svg>
