<svg xmlns="http://www.w3.org/2000/svg" width="95.746" height="76.589" viewBox="0 0 95.746 76.589">
  <g id="Group_298" data-name="Group 298" transform="translate(-6213.18 -2470)">
    <path id="Path_15610" data-name="Path 15610" d="M-533.014,422.2c-4.341-2.573-10.234-5.132-14.547-9.862v-2.2a23.654,23.654,0,0,0,4.541-8.169c.146-.449.284-.906.41-1.372a4.742,4.742,0,0,0,2.1-3.732,6.373,6.373,0,0,0-.03-1.674,4.269,4.269,0,0,0-.91-2.137q.135-2.5.016-5.281c-.06-1.443-.17-2.943-.335-4.509-.041-.387-.092-.759-.155-1.12-1.562-9.005-9.756-9.894-12.869-9.9-.125,0-2.279,0-2.4,0-3.113.007-11.307.9-12.869,9.9q-.093.54-.155,1.12c-.164,1.566-.273,3.065-.335,4.509q-.118,2.783.016,5.281a4.233,4.233,0,0,0-.909,2.137,6.372,6.372,0,0,0-.032,1.674,4.743,4.743,0,0,0,2.1,3.732,27.073,27.073,0,0,0,.881,2.69,23.294,23.294,0,0,0,4.071,6.851v2.2h0c-7.684,8.426-20.384,9.962-20.384,16.962v7.632a1.7,1.7,0,0,0,1.7,1.7h29.4C-552.518,431.858-541.779,429.16-533.014,422.2Z" transform="translate(6798 2097.769)" fill="#e9204f"/>
    <path id="Path_15611" data-name="Path 15611" d="M-511.084,420.479l-.013-3.292c4.655.608,14.143-2.781,14.143-2.781-3.216-3.289-3.944-7.128-6.056-22.193s-15.2-14.925-16.189-14.925-14.078-.141-16.189,14.925-2.839,18.9-6.056,22.193c0,0,9.489,3.389,14.143,2.781l-.013,3.292c-8.281,9.081-22.012,10.737-22.011,18.283v8.228a1.83,1.83,0,0,0,1.829,1.83H-490.9a1.83,1.83,0,0,0,1.829-1.83v-8.228C-489.072,431.216-502.8,429.56-511.084,420.479Z" transform="translate(6798 2097.769)" fill="#e9204f"/>
  </g>
</svg>
