<svg xmlns="http://www.w3.org/2000/svg" width="65.281" height="65.281" viewBox="0 0 65.281 65.281">
  <g id="Group_281" data-name="Group 281" transform="translate(-3894 -3821)">
    <path id="Path_15577" data-name="Path 15577" d="M57.768,74.728a10.972,10.972,0,0,0,10.96-10.96v-5.39a2.335,2.335,0,0,0-1.6-2.216L53.117,51.491a2.335,2.335,0,0,0-2.547.737L47.1,56.477A37.733,37.733,0,0,1,26.249,35.632L30.5,32.158a2.337,2.337,0,0,0,.738-2.547L26.566,15.6A2.335,2.335,0,0,0,24.35,14h-5.4A10.959,10.959,0,0,0,8,24.944,49.766,49.766,0,0,0,57.768,74.728ZM18.947,18.671h3.719L26.3,29.56,21.99,33.082a2.333,2.333,0,0,0-.722,2.593A42.411,42.411,0,0,0,47.053,61.458a2.352,2.352,0,0,0,2.593-.721l3.521-4.306,10.889,3.63v3.707a6.3,6.3,0,0,1-6.288,6.288,45.1,45.1,0,0,1-45.1-45.111A6.283,6.283,0,0,1,18.947,18.671Z" transform="translate(3886 3811.553)" fill="#e9204f"/>
    <path id="Path_15578" data-name="Path 15578" d="M50.007,10.31a2.322,2.322,0,0,1,2.507-2.151,32.863,32.863,0,0,1,30.06,30.06,2.336,2.336,0,1,1-4.658.356A28.161,28.161,0,0,0,52.157,12.816,2.334,2.334,0,0,1,50.007,10.31Z" transform="translate(3876.699 3812.848)" fill="#e9204f"/>
    <path id="Path_15579" data-name="Path 15579" d="M68.562,41.318A18.773,18.773,0,0,0,52.078,24.834a2.338,2.338,0,0,1-2.066-2.579,2.37,2.37,0,0,1,2.579-2.066A23.481,23.481,0,0,1,73.205,40.8a2.336,2.336,0,0,1-4.643.514Z" transform="translate(3876.7 3810.185)" fill="#e9204f"/>
    <path id="Path_15580" data-name="Path 15580" d="M63.732,43.279a2.336,2.336,0,0,1-4.578.931,9.311,9.311,0,0,0-7.284-7.284,2.336,2.336,0,0,1,.931-4.578A13.975,13.975,0,0,1,63.732,43.279Z" transform="translate(3876.7 3807.501)" fill="#e9204f"/>
  </g>
</svg>
