<svg xmlns="http://www.w3.org/2000/svg" width="70.484" height="71.698" viewBox="0 0 70.484 71.698">
  <g id="Group_290" data-name="Group 290" transform="translate(-5 -4.226)">
    <path id="Path_15603" data-name="Path 15603" d="M78.221,7.245H38.479a1.776,1.776,0,0,0-1.774,1.774V28.643a2.383,2.383,0,0,1,3.462,3.269l-2.923,3.383a1.765,1.765,0,0,0,1.234.5H78.22a1.776,1.776,0,0,0,1.774-1.774V9.019A1.775,1.775,0,0,0,78.221,7.245ZM67.543,21.522v.392h-.011a8.867,8.867,0,1,1-9.249-9.249v-.009h.783v.009a8.877,8.877,0,0,1,8.466,8.467h.011Z" transform="translate(-6.875 -0.655)" fill="none"/>
    <path id="Path_15604" data-name="Path 15604" d="M62.128,15.163A8.085,8.085,0,1,0,70.6,23.63H62.128Z" transform="translate(-10.72 -2.372)" fill="none"/>
    <path id="Path_15605" data-name="Path 15605" d="M71.346,4.226H31.6a4.143,4.143,0,0,0-4.138,4.138V30.538l-4.6,5.011h0a2.343,2.343,0,0,0-.187-1.2c-.356-.522-1.254.294-2.984.433-.157.013-.321.02-.493.02h-.248a6.753,6.753,0,0,1-2.147-.37c-.731-.234-1.159-.416-1.365-.01a2.7,2.7,0,0,0-.153,1.123l-1.482,1.2L5.574,46.519a2.391,2.391,0,0,0,3.635,3.106l3.964-4.773-.67,9.594h1.711v.169L12.468,73.31h0a2.392,2.392,0,0,0,2.159,2.6c.075.007.15.011.224.011a2.392,2.392,0,0,0,2.378-2.169l1.691-18.1h.316l1.689,18.1A2.394,2.394,0,0,0,23.3,75.924c.075,0,.15,0,.226-.011a2.392,2.392,0,0,0,2.158-2.6h0L23.94,54.615v-.169h1.711l-.71-9.653-.27-3.671.067.041,4.088-4.733A4.118,4.118,0,0,0,31.6,37.51H71.346a4.143,4.143,0,0,0,4.138-4.138V8.364A4.143,4.143,0,0,0,71.346,4.226Zm1.773,29.145a1.776,1.776,0,0,1-1.774,1.774H31.6a1.765,1.765,0,0,1-1.234-.5l2.923-3.383a2.383,2.383,0,0,0-3.462-3.269V8.364A1.776,1.776,0,0,1,31.6,6.59H71.347a1.776,1.776,0,0,1,1.774,1.774V33.371Z" fill="#e9204f"/>
    <path id="Path_15606" data-name="Path 15606" d="M21.522,38.327l.033,0,.031,0a5.246,5.246,0,1,0,0-10.492l-.031,0-.033,0a5.246,5.246,0,1,0,0,10.492Z" transform="translate(-2.445 -5.119)" fill="#e9204f"/>
    <path id="Path_15607" data-name="Path 15607" d="M62.694,14.161v-.009h-.783v.009a8.867,8.867,0,1,0,9.249,9.249h.011v-.783H71.16A8.877,8.877,0,0,0,62.694,14.161ZM62.3,31.1a8.085,8.085,0,0,1-.392-16.161v8.468h8.468A8.1,8.1,0,0,1,62.3,31.1Z" transform="translate(-10.503 -2.152)" fill="#e9204f"/>
  </g>
</svg>
