<svg xmlns="http://www.w3.org/2000/svg" width="67.847" height="63.001" viewBox="0 0 67.847 63.001">
  <g id="Group_280" data-name="Group 280" transform="translate(-4 -6)">
    <path id="Path_15576" data-name="Path 15576" d="M69.424,6h-63A2.426,2.426,0,0,0,4,8.423v42.4a2.426,2.426,0,0,0,2.423,2.423H32.607l-2.827,8.481h-6.4a2.426,2.426,0,0,0-2.423,2.423v2.423A2.426,2.426,0,0,0,23.385,69H52.462a2.426,2.426,0,0,0,2.423-2.423V64.155a2.426,2.426,0,0,0-2.423-2.423h-6.4L43.24,53.251H69.424a2.426,2.426,0,0,0,2.423-2.423V8.423A2.426,2.426,0,0,0,69.424,6Zm0,2.423,0,35.135h-63V8.423ZM52.459,66.578H23.385V64.155H52.462Zm-8.947-4.846H32.335l2.827-8.481h5.524ZM6.423,50.828V45.982h63v4.846ZM39.135,48.4a1.212,1.212,0,1,1-1.212-1.212A1.211,1.211,0,0,1,39.135,48.4Zm-15.75-7.269H27.02a1.211,1.211,0,0,0,1.212-1.212V31.443a1.212,1.212,0,0,0-1.212-1.212H23.385a1.212,1.212,0,0,0-1.212,1.212v8.481A1.211,1.211,0,0,0,23.385,41.135ZM24.6,32.654h1.212v6.058H24.6ZM43.982,26.6H40.347a1.212,1.212,0,0,0-1.212,1.212V39.924a1.211,1.211,0,0,0,1.212,1.212h3.635a1.211,1.211,0,0,0,1.212-1.212V27.808A1.212,1.212,0,0,0,43.982,26.6ZM42.77,38.712H41.558V29.02H42.77ZM35.5,22.962H31.866a1.212,1.212,0,0,0-1.212,1.212v15.75a1.211,1.211,0,0,0,1.212,1.212H35.5a1.211,1.211,0,0,0,1.212-1.212V24.173A1.212,1.212,0,0,0,35.5,22.962Zm-1.212,15.75H33.077V25.385h1.212ZM47.616,19.327v20.6a1.211,1.211,0,0,0,1.212,1.212h3.635a1.211,1.211,0,0,0,1.212-1.212v-20.6a1.212,1.212,0,0,0-1.212-1.212H48.828A1.212,1.212,0,0,0,47.616,19.327Zm2.423,1.212h1.212V38.712H50.039ZM24.8,23.634a1.213,1.213,0,0,1,.336-1.68l7.269-4.846a1.21,1.21,0,0,1,.843-.191l7.937,1.134,8.064-6.912a1.211,1.211,0,0,1,1.577,1.839l-8.481,7.269a1.2,1.2,0,0,1-.96.279l-8.023-1.146-6.884,4.589a1.192,1.192,0,0,1-.67.2A1.211,1.211,0,0,1,24.8,23.634Z" fill="#e9204f"/>
  </g>
</svg>
