<svg xmlns="http://www.w3.org/2000/svg" width="95" height="80.3" viewBox="0 0 95 80.3">
  <g id="Group_305" data-name="Group 305" transform="translate(-6584.5 -2892)">
    <g id="Group_300" data-name="Group 300">
      <g id="Group_299" data-name="Group 299" transform="translate(6582 2882.2)">
        <path id="Path_15612" data-name="Path 15612" d="M91.3,9.8H8.7A6.231,6.231,0,0,0,2.5,16V83.9a6.231,6.231,0,0,0,6.2,6.2H91.3a6.231,6.231,0,0,0,6.2-6.2V16.1A6.253,6.253,0,0,0,91.3,9.8ZM32.1,16.2a3,3,0,1,1-3,3A3.076,3.076,0,0,1,32.1,16.2Zm-9.3,0a3,3,0,1,1-3,3A2.945,2.945,0,0,1,22.8,16.2Zm-9.4,0a3,3,0,1,1-3,3A3.009,3.009,0,0,1,13.4,16.2ZM89.8,82.5H10.2V28.9H89.8V82.5Z" fill="#e9204f"/>
        <path id="Path_15613" data-name="Path 15613" d="M80.6,47a11.282,11.282,0,0,0-11.1-9.5,11.56,11.56,0,0,0-3.7.7l4.8,8.9h10Z" fill="#e9204f"/>
        <path id="Path_15614" data-name="Path 15614" d="M69.5,60.1a11.2,11.2,0,0,0,11.1-9.5H69.5a1.893,1.893,0,0,1-1.6-.9l-5.3-9.8a11.218,11.218,0,0,0,6.9,20.2Z" fill="#e9204f"/>
        <path id="Path_15615" data-name="Path 15615" d="M21.2,60.9a2.127,2.127,0,0,0,1.5-.7L29.6,51l5.7,4.2a1.735,1.735,0,0,0,1.4.3,1.855,1.855,0,0,0,1.2-.7l6.8-9.2L46.6,47a1.2,1.2,0,0,0,1.4.1,1.482,1.482,0,0,0,.8-1.2l.3-7.5a1.433,1.433,0,0,0-.5-1.1,1.323,1.323,0,0,0-1.2-.2l-7.1,2.4a1.441,1.441,0,0,0-.9,1.1,1.3,1.3,0,0,0,.5,1.3l1.9,1.4L36,51.2l-5.7-4.3a1.735,1.735,0,0,0-1.4-.3,1.855,1.855,0,0,0-1.2.7L19.7,58a1.9,1.9,0,0,0,.4,2.6A2.016,2.016,0,0,0,21.2,60.9Z" fill="#e9204f"/>
        <path id="Path_15616" data-name="Path 15616" d="M20.6,74.2h5.1A1.324,1.324,0,0,0,27,72.9V65.7a1.324,1.324,0,0,0-1.3-1.3H20.6a1.324,1.324,0,0,0-1.3,1.3V73A1.3,1.3,0,0,0,20.6,74.2Z" fill="#e9204f"/>
        <path id="Path_15617" data-name="Path 15617" d="M37.2,59.4H32.1a1.324,1.324,0,0,0-1.3,1.3V73a1.324,1.324,0,0,0,1.3,1.3h5.1A1.324,1.324,0,0,0,38.5,73V60.7A1.324,1.324,0,0,0,37.2,59.4Z" fill="#e9204f"/>
        <path id="Path_15618" data-name="Path 15618" d="M43.5,54.3a1.324,1.324,0,0,0-1.3,1.3V73a1.324,1.324,0,0,0,1.3,1.3h5.1A1.324,1.324,0,0,0,49.9,73V55.6a1.324,1.324,0,0,0-1.3-1.3Z" fill="#e9204f"/>
        <path id="Path_15619" data-name="Path 15619" d="M59.5,74.2H79.4a1.324,1.324,0,0,0,1.3-1.3V67.8a1.324,1.324,0,0,0-1.3-1.3H59.5a1.324,1.324,0,0,0-1.3,1.3V73A1.184,1.184,0,0,0,59.5,74.2Z" fill="#e9204f"/>
      </g>
    </g>
  </g>
</svg>
