<svg xmlns="http://www.w3.org/2000/svg" width="65.343" height="51.031" viewBox="0 0 65.343 51.031">
  <g id="Group_291" data-name="Group 291" transform="translate(-6075 -3934)">
    <path id="Path_15608" data-name="Path 15608" d="M20.53,31.187a6.2,6.2,0,1,1,6.2-6.2A6.2,6.2,0,0,1,20.53,31.187Zm20.692,3.1v0ZM10,37.4V49.183a3.075,3.075,0,0,0,3.072,3.1,2.813,2.813,0,0,0,1.83-.621V66.7a3.121,3.121,0,0,0,6.241,0,3.088,3.088,0,1,0,6.176,0V37.4H38.052a3.049,3.049,0,1,0,0-6.094H25.684a9.091,9.091,0,0,1-5.13,1.805,8.077,8.077,0,0,1-5.1-1.863A6.188,6.188,0,0,0,10,37.4ZM39.751,68.151a.966.966,0,0,0,0,1.364h0a.966.966,0,0,0,1.364,0L52.682,57.948,64.25,69.515a.966.966,0,0,0,1.364,0h0a.966.966,0,0,0,0-1.364L53.36,55.9A.966.966,0,0,0,52,55.9h0Zm-6.772-28.8H30.038V50.825a3.031,3.031,0,0,0,3.031,3.014H72.28a3.054,3.054,0,0,0,3.063-3.014V23.165a3.032,3.032,0,0,0-3.063-2.982H57.494a1.442,1.442,0,0,0-1.446-1.413H49.309a1.442,1.442,0,0,0-1.446,1.413H33.069a3,3,0,0,0-3.031,2.982v6.168h2.941V23.165c0-.065.025-.041.09-.041H72.28c.065,0,.123-.033.123.041v27.66c0,.065-.057.18-.123.18H33.069c-.065,0-.09-.114-.09-.18V39.356Z" transform="translate(6065 3915.23)" fill="#e9204f"/>
  </g>
</svg>
