<svg xmlns="http://www.w3.org/2000/svg" width="65" height="61.118" viewBox="0 0 65 61.118">
  <g id="Group_282" data-name="Group 282" transform="translate(-487.436 -4147)">
    <path id="Path_15581" data-name="Path 15581" d="M62.63,18.713a1.584,1.584,0,0,0-.989-.723l-1.935-.457a1.584,1.584,0,0,0-1.2.191h0a1.6,1.6,0,0,0,.478,2.913l1.935.457a1.584,1.584,0,0,0,1.2-.191h0a1.574,1.574,0,0,0,.712-.989,1.542,1.542,0,0,0-.2-1.2Z" transform="translate(489.56 4144.612)" fill="#e9204f"/>
    <path id="Path_15582" data-name="Path 15582" d="M51.3,8.3h0a1.6,1.6,0,0,0,1.2-.2,1.574,1.574,0,0,0,.68-.968l.457-1.935a1.542,1.542,0,0,0-.159-1.148,1.574,1.574,0,0,0-.989-.712,1.542,1.542,0,0,0-1.2.191h0a1.574,1.574,0,0,0-.712.989l-.468,1.935a1.6,1.6,0,0,0,.2,1.2A1.627,1.627,0,0,0,51.3,8.3Z" transform="translate(489.074 4143.714)" fill="#e9204f"/>
    <path id="Path_15583" data-name="Path 15583" d="M60.9,9.7a1.595,1.595,0,0,0-2.2-.521l-4.03,2.488a1.6,1.6,0,0,0-.521,2.19,1.574,1.574,0,0,0,.989.712h0a1.584,1.584,0,0,0,1.2-.191l4.051-2.488A1.6,1.6,0,0,0,60.9,9.7Z" transform="translate(489.317 4144.071)" fill="#e9204f"/>
    <path id="Path_15584" data-name="Path 15584" d="M57.163,32.509,53.07,25.981l3.455-3.073a3.19,3.19,0,0,0,.563-4.04L52.9,12.223A3.19,3.19,0,0,0,49.008,11l-4.253,1.8L40.588,6.247a3.16,3.16,0,0,0-5.422.138.319.319,0,0,0,0,.106L35.1,6.6,35,6.747v.106l-.223.383-.053.106v.1l-1.839,3.041-.6.946c-3.19,4.933-9.633,13.9-17.011,18.585l-1.542.829h0l-5.21,3.3A5.22,5.22,0,0,0,6.289,37.41a5.316,5.316,0,0,0-.106.7L2.929,40.1a3.163,3.163,0,0,0-1.01,4.37l3.934,6.262a3.19,3.19,0,0,0,2.669,1.435h.128a3.126,3.126,0,0,0,1.531-.478l1.531-.957L22,63.7a1.605,1.605,0,0,0,1.255.606,1.574,1.574,0,0,0,.829-.245L35.9,56.782a1.584,1.584,0,0,0-.085-2.754l-.755-.4a.936.936,0,0,0-.255-.117c-4.5-1.478-6.581-3.923-9.494-7.761l-.4-.532c6.177-3.849,13.822-5.784,19.2-6.73,1.52-.266,3.1-.51,4.71-.691l.978-.106,3.19-.266h1.574a2.126,2.126,0,0,0,.308,0,3.19,3.19,0,0,0,2.265-4.806ZM50.178,13.924l4.178,6.624-2.988,2.658L46.5,15.5ZM12.434,46.554,8.5,48.914l-3.891-6.1L8.6,40.344A1.616,1.616,0,0,0,9.34,38.8a2.126,2.126,0,0,1,0-.691,1.988,1.988,0,0,1,.9-1.276l3.87-2.445.766,1.212,5.486,8.686L16.5,46.734a1.988,1.988,0,0,1-2.3-.117,1.584,1.584,0,0,0-1.765-.064Zm19.138,9.133-7.953,4.923-8.24-10.377h.255a5.188,5.188,0,0,0,2.584-.8l4.019-2.509.574.744c2.669,3.594,4.88,6.252,8.8,8.017ZM49.944,37.676l1.063-.106h.234l.829-.074h.84Zm4.444-3.509H51.709l-.766.064h-.255l-1.063.1h-.149l-1.063.106c-1.669.2-3.307.436-4.891.712-5.678,1-13.822,3.073-20.477,7.251l-3.126-4.944-3.094-4.8c7.538-4.731,13.917-13.216,18-19.5l.659-1.063,2.2-3.679a.989.989,0,0,1,0-.106l.149-.106.074-.138h0l8.251,12.992,8.346,13.088Z" transform="translate(486 4143.809)" fill="#e9204f"/>
  </g>
</svg>
