<svg xmlns="http://www.w3.org/2000/svg" width="93.444" height="82.96" viewBox="0 0 93.444 82.96">
  <g id="Group_306" data-name="Group 306" transform="translate(-6705.278 -3282)">
    <g id="Group_304" data-name="Group 304">
      <g id="Group" transform="translate(6702 3273.48)">
        <path id="Compound_Path" data-name="Compound Path" d="M85.65,57.59a.92.92,0,0,0-.92.92V72.39a.58.58,0,0,1-.59.58H15.86a.59.59,0,0,1-.6-.59V29.05a.6.6,0,0,1,.6-.6H54.52a.93.93,0,0,0,.93-.92V24.07a.93.93,0,0,0-.93-.93H15.25a5.5,5.5,0,0,0-5.5,5.5v50h80.5V58.5a.93.93,0,0,0-.93-.92Z" fill="#e9204f"/>
        <path id="Path" d="M96.51,82a.21.21,0,0,1,.21.24A10.86,10.86,0,0,1,86,91.48H14A10.86,10.86,0,0,1,3.28,82.24.21.21,0,0,1,3.49,82H39.17a.21.21,0,0,1,.21.21h0a2.33,2.33,0,0,0,2.34,2.33H58.29a2.34,2.34,0,0,0,2.33-2.33h0a.21.21,0,0,1,.21-.21Z" fill="#e9204f"/>
        <path id="Compound_Path-2" data-name="Compound Path" d="M87.33,8.52H63.39a4.07,4.07,0,0,0-4.07,4.06V49.94A4.07,4.07,0,0,0,63.39,54H87.33a4.07,4.07,0,0,0,4.07-4.07V12.58A4.07,4.07,0,0,0,87.33,8.52ZM75,52.43A2.46,2.46,0,1,1,77.48,50,2.46,2.46,0,0,1,75,52.43ZM87.36,45a1.31,1.31,0,0,1-1.31,1.31H64.67A1.31,1.31,0,0,1,63.36,45V13.61a1.31,1.31,0,0,1,1.31-1.3H86.05a1.31,1.31,0,0,1,1.31,1.3Z" fill="#e9204f"/>
      </g>
    </g>
  </g>
</svg>
