<svg id="Group_255" data-name="Group 255" xmlns="http://www.w3.org/2000/svg" width="70.44" height="70.44" viewBox="0 0 70.44 70.44">
  <path id="Path_15563" data-name="Path 15563" d="M202.36,55.908v2.727h10.706V55.908a.933.933,0,0,1,.862-1h14.5v-23.1A2.849,2.849,0,0,0,225.574,29H189.826A2.826,2.826,0,0,0,187,31.806v23.1h14.472A.955.955,0,0,1,202.36,55.908ZM208.011,32.1a4.652,4.652,0,1,1-4.793,4.65A4.728,4.728,0,0,1,208.011,32.1Zm-7.668,20.144V48.889a7.607,7.607,0,0,1,15.205,0v3.356a.908.908,0,0,1-.873.959H201.347a1.02,1.02,0,0,1-1-.959Z" transform="translate(-162.486 -29)" fill="#e7204f"/>
  <path id="Path_15564" data-name="Path 15564" d="M290.741,121.832A5.627,5.627,0,0,0,285,127.318v2.453h11.481v-2.453A5.627,5.627,0,0,0,290.741,121.832Z" transform="translate(-245.281 -107.429)" fill="#e7204f"/>
  <path id="Path_15565" data-name="Path 15565" d="M306.46,66.557a2.791,2.791,0,1,0-2.931-2.788A2.865,2.865,0,0,0,306.46,66.557Z" transform="translate(-260.935 -56.02)" fill="#e7204f"/>
  <ellipse id="Ellipse_1601" data-name="Ellipse 1601" cx="8.79" cy="8.429" rx="8.79" ry="8.429" transform="translate(7.054 23.939)" fill="#e7204f"/>
  <path id="Path_15566" data-name="Path 15566" d="M219.778,210.809a.979.979,0,0,1-1,.914H206.322a.954.954,0,0,1-.973-.914V208H192.741a10.032,10.032,0,0,1,1.09,4.529,9.4,9.4,0,0,1-.393,2.763H234.97a2.753,2.753,0,0,0,2.806-2.739V208h-18Z" transform="translate(-167.336 -180.227)" fill="#e7204f"/>
  <path id="Path_15567" data-name="Path 15567" d="M60.651,351.678c0-8.394-7.089-15.222-15.826-15.222S29,343.284,29,351.678v7.515H60.651Z" transform="translate(-29 -288.753)" fill="#e7204f"/>
</svg>
