<svg xmlns="http://www.w3.org/2000/svg" width="67.146" height="67.158" viewBox="0 0 67.146 67.158">
  <g id="Group_287" data-name="Group 287" transform="translate(-6201.005 -3705)">
    <path id="Path_15585" data-name="Path 15585" d="M61.359,21.329a1.2,1.2,0,0,0-1-.54H43.383l-4.605-6.38V5.2a1.2,1.2,0,0,0-1.2-1.2H29.183a1.2,1.2,0,0,0-1.2,1.2V10a1.2,1.2,0,0,0,1.2,1.2h7.2V14.41l-4.605,6.38H14.792a1.2,1.2,0,0,0-1,.54L4.2,35.72a1.2,1.2,0,0,0,1,1.859H8.8v32.38a1.2,1.2,0,0,0,1.2,1.2H65.161a1.2,1.2,0,0,0,1.2-1.2V37.579h3.6a1.2,1.2,0,0,0,1-1.859ZM30.383,8.8V6.4h6V8.8ZM7.441,35.181l8-11.993H30.035L21.376,35.181ZM41.176,68.76h-7.2V54.369h7.2Zm22.786,0H43.574V53.17a1.2,1.2,0,0,0-1.2-1.2H32.781a1.2,1.2,0,0,0-1.2,1.2V68.76H11.195V37.579H21.988a1.2,1.2,0,0,0,.971-.492L33.357,22.7h0l4.221-5.852,4.209,5.828h0l10.4,14.391a1.2,1.2,0,0,0,.983.516H63.962Zm1.2-33.579H53.78L45.121,23.188H59.716l8,11.993Z" transform="translate(6197 3701)" fill="#e9204f"/>
    <path id="Path_15586" data-name="Path 15586" d="M33.594,24a9.594,9.594,0,1,0,9.594,9.594A9.594,9.594,0,0,0,33.594,24Zm0,16.79a7.2,7.2,0,1,1,7.2-7.2A7.2,7.2,0,0,1,33.594,40.79Z" transform="translate(6200.984 3704.985)" fill="#e9204f"/>
    <path id="Path_15587" data-name="Path 15587" d="M32.61,27a1.2,1.2,0,0,0-1.2,1.2V32.5L29.36,34.555a1.2,1.2,0,1,0,1.691,1.691l2.4-2.4a1.2,1.2,0,0,0,.36-.851V28.2A1.2,1.2,0,0,0,32.61,27Z" transform="translate(6201.968 3705.583)" fill="#e9204f"/>
    <path id="Path_15588" data-name="Path 15588" d="M18,38H13.2A1.2,1.2,0,0,0,12,39.2V44a1.2,1.2,0,0,0,1.2,1.2H18A1.2,1.2,0,0,0,19.2,44V39.2A1.2,1.2,0,0,0,18,38Zm-1.2,4.8H14.4V40.4h2.4Z" transform="translate(6198.593 3707.775)" fill="#e9204f"/>
    <path id="Path_15589" data-name="Path 15589" d="M18,46H13.2A1.2,1.2,0,0,0,12,47.2V52a1.2,1.2,0,0,0,1.2,1.2H18A1.2,1.2,0,0,0,19.2,52V47.2A1.2,1.2,0,0,0,18,46Zm-1.2,4.8H14.4V48.4h2.4Z" transform="translate(6198.593 3709.369)" fill="#e9204f"/>
    <path id="Path_15590" data-name="Path 15590" d="M25,38H20.2A1.2,1.2,0,0,0,19,39.2V44a1.2,1.2,0,0,0,1.2,1.2H25A1.2,1.2,0,0,0,26.2,44V39.2A1.2,1.2,0,0,0,25,38Zm-1.2,4.8H21.4V40.4h2.4Z" transform="translate(6199.988 3707.775)" fill="#e9204f"/>
    <path id="Path_15591" data-name="Path 15591" d="M25,46H20.2A1.2,1.2,0,0,0,19,47.2V52a1.2,1.2,0,0,0,1.2,1.2H25A1.2,1.2,0,0,0,26.2,52V47.2A1.2,1.2,0,0,0,25,46Zm-1.2,4.8H21.4V48.4h2.4Z" transform="translate(6199.988 3709.369)" fill="#e9204f"/>
    <path id="Path_15592" data-name="Path 15592" d="M45,38H40.2A1.2,1.2,0,0,0,39,39.2V44a1.2,1.2,0,0,0,1.2,1.2H45A1.2,1.2,0,0,0,46.2,44V39.2A1.2,1.2,0,0,0,45,38Zm-1.2,4.8H41.4V40.4h2.4Z" transform="translate(6203.973 3707.775)" fill="#e9204f"/>
    <path id="Path_15593" data-name="Path 15593" d="M45,46H40.2A1.2,1.2,0,0,0,39,47.2V52a1.2,1.2,0,0,0,1.2,1.2H45A1.2,1.2,0,0,0,46.2,52V47.2A1.2,1.2,0,0,0,45,46Zm-1.2,4.8H41.4V48.4h2.4Z" transform="translate(6203.973 3709.369)" fill="#e9204f"/>
    <path id="Path_15594" data-name="Path 15594" d="M47.2,45.2H52A1.2,1.2,0,0,0,53.2,44V39.2A1.2,1.2,0,0,0,52,38H47.2A1.2,1.2,0,0,0,46,39.2V44A1.2,1.2,0,0,0,47.2,45.2Zm1.2-4.8h2.4v2.4H48.4Z" transform="translate(6205.368 3707.775)" fill="#e9204f"/>
    <path id="Path_15595" data-name="Path 15595" d="M47.2,53.2H52A1.2,1.2,0,0,0,53.2,52V47.2A1.2,1.2,0,0,0,52,46H47.2A1.2,1.2,0,0,0,46,47.2V52A1.2,1.2,0,0,0,47.2,53.2Zm1.2-4.8h2.4v2.4H48.4Z" transform="translate(6205.368 3709.369)" fill="#e9204f"/>
  </g>
</svg>
