<svg xmlns="http://www.w3.org/2000/svg" width="79.12" height="78.454" viewBox="0 0 79.12 78.454">
  <path id="Path_15570" data-name="Path 15570" d="M81.62,48.873a14.034,14.034,0,0,0-9.161-13.159V33.3a30.4,30.4,0,0,0-60.8,0v2.415a14.057,14.057,0,0,0,4.914,27.234h5.08a2.417,2.417,0,0,0,2.415-2.415V37.213A2.417,2.417,0,0,0,21.655,34.8H19.323V33.3a22.737,22.737,0,0,1,45.473,0v1.5H62.465a2.417,2.417,0,0,0-2.415,2.415v23.32a2.417,2.417,0,0,0,2.415,2.415h1.083a16.7,16.7,0,0,1-14.075,9.994,3.58,3.58,0,0,0-3.5-2.832H38.062a3.555,3.555,0,0,0-3.581,3.581v4.081a3.555,3.555,0,0,0,3.581,3.581h7.912a3.5,3.5,0,0,0,3.5-3,22.1,22.1,0,0,0,19.9-15.574A14.094,14.094,0,0,0,81.62,48.873Z" transform="translate(-2.5 -2.9)" fill="#e7204f"/>
</svg>
