<svg xmlns="http://www.w3.org/2000/svg" width="65.569" height="52.668" viewBox="0 0 65.569 52.668">
  <g id="Group_289" data-name="Group 289" transform="translate(-6024.5 -3814)">
    <path id="Path_15596" data-name="Path 15596" d="M72.706,3.8h-46.5A1.242,1.242,0,0,0,25,5.005V31.3a1.242,1.242,0,0,0,1.205,1.205h0A1.242,1.242,0,0,0,27.41,31.3V6.21H71.5V33.572H39.815a1.242,1.242,0,0,0-1.205,1.205h0a1.242,1.242,0,0,0,1.205,1.205H72.706a1.242,1.242,0,0,0,1.205-1.205V5.005A1.2,1.2,0,0,0,72.706,3.8Z" transform="translate(6016.158 3810.2)" fill="#e9204f"/>
    <circle id="Ellipse_1643" data-name="Ellipse 1643" cx="6.451" cy="6.451" r="6.451" transform="translate(6024.925 3828.177)" fill="#e9204f"/>
    <circle id="Ellipse_1644" data-name="Ellipse 1644" cx="5.742" cy="5.742" r="5.742" transform="translate(6073.695 3848.592)" fill="#e9204f"/>
    <circle id="Ellipse_1645" data-name="Ellipse 1645" cx="5.742" cy="5.742" r="5.742" transform="translate(6052.288 3848.592)" fill="#e9204f"/>
    <path id="Path_15597" data-name="Path 15597" d="M30.776,36.766l8.294-10.7a.808.808,0,1,0-1.276-.992L29.571,35.845a2.347,2.347,0,0,0-2.339.425L21.7,41.019,10.432,38.751c-.142,0-.354-.071-.5-.071a10.618,10.618,0,0,0-1.559-.142H8.234C4.548,38.538,1.5,41.09,1.5,44.28V62.5H15.039V44.634l6.734,1.347c.142,0,.284.071.5.071a2.477,2.477,0,0,0,1.559-.567l6.38-5.529A2.307,2.307,0,0,0,30.776,36.766Z" transform="translate(6023 3804.1)" fill="#e9204f"/>
    <path id="Path_15598" data-name="Path 15598" d="M76.072,70.5H75.93c-4.04,0-7.23,2.268-7.23,5.1v.284H83.373V75.6C83.373,72.768,80.113,70.5,76.072,70.5Z" transform="translate(6003.435 3790.781)" fill="#e9204f"/>
    <path id="Path_15599" data-name="Path 15599" d="M45.872,70.5H45.73c-4.04,0-7.23,2.268-7.23,5.1v.284H53.173V75.6C53.1,72.768,49.842,70.5,45.872,70.5Z" transform="translate(6012.228 3790.781)" fill="#e9204f"/>
    <path id="Path_15600" data-name="Path 15600" d="M69.968,12.7H40.905a1.205,1.205,0,1,0,0,2.41H69.968a1.242,1.242,0,0,0,1.205-1.205A1.2,1.2,0,0,0,69.968,12.7Z" transform="translate(6011.878 3807.609)" fill="#e9204f"/>
    <path id="Path_15601" data-name="Path 15601" d="M75.849,24.8H61.105a1.205,1.205,0,0,0,0,2.41H75.92a1.242,1.242,0,0,0,1.205-1.205A1.256,1.256,0,0,0,75.849,24.8Z" transform="translate(6005.997 3804.086)" fill="#e9204f"/>
    <path id="Path_15602" data-name="Path 15602" d="M74.423,37.6H56.205a1.205,1.205,0,1,0,0,2.41H74.494A1.242,1.242,0,0,0,75.7,38.805,1.256,1.256,0,0,0,74.423,37.6Z" transform="translate(6007.424 3800.359)" fill="#e9204f"/>
  </g>
</svg>
